<svg width="36" height="36" viewBox="0 0 36 36" fill="none" xmlns="http://www.w3.org/2000/svg">
<g id="icon-color-data-science">
<g id="icon-datascience copy">
<rect id="Rectangle" opacity="0.2" width="36" height="36" rx="4" fill="url(#paint0_linear_1_554)"/>
</g>
<path id="Shape" fill-rule="evenodd" clip-rule="evenodd" d="M8.7245 8.88283C9.34851 8.20612 10.282 7.96637 11.2324 8.00378C12.1897 8.04119 13.2354 8.33194 14.3831 8.81312C15.7079 9.40042 16.9674 10.1253 18.1407 10.9759C19.3156 10.1259 20.5761 9.40099 21.9018 8.81312C23.092 8.33194 24.085 8.04119 25.0762 8.00378C26.0675 7.96637 26.9602 8.20272 27.5553 8.88283C28.249 9.55785 28.3476 10.4998 28.249 11.452C28.1261 12.5383 27.7892 13.5895 27.2577 14.5448C26.6905 15.6748 25.9913 16.7335 25.1749 17.6989C25.9833 18.677 26.6817 19.7409 27.2577 20.8716C27.7821 21.8233 28.1187 22.867 28.249 23.9457C28.3476 24.9387 28.249 25.93 27.5553 26.5251C26.9602 27.2188 26.0675 27.5164 25.0762 27.4177C24.085 27.4177 23.0903 27.1202 21.9018 26.6237C20.7133 26.1272 19.4228 25.3349 18.1339 24.4422C16.8451 25.3349 15.5665 26.1272 14.3763 26.6237C13.2354 27.1202 12.1948 27.4177 11.2324 27.4177C10.3009 27.5426 9.36632 27.2101 8.7228 26.5251C8.09369 25.93 7.92366 24.9387 8.02908 23.9457C8.1277 23.0531 8.49326 21.9632 9.04926 20.8716C9.63796 19.758 10.3206 18.6965 11.0896 17.6989C10.3159 16.7111 9.63298 15.6555 9.04926 14.5448C8.49666 13.4345 8.1328 12.4041 8.02908 11.452C7.92536 10.4998 8.10049 9.55955 8.7245 8.88283ZM13.72 10.3689C12.9159 9.99533 12.0528 9.76516 11.1695 9.68877C10.5183 9.66837 10.1851 9.80099 9.97592 10.0203C9.76678 10.2397 9.65116 10.6154 9.71747 11.27C9.78379 11.9247 10.0711 12.7986 10.5676 13.7797C11.0459 14.6851 11.5963 15.5505 12.2135 16.3675C12.9647 15.4951 13.7592 14.6609 14.5939 13.8681C15.2978 13.205 16.012 12.6099 16.7363 12.0437C15.7855 11.3923 14.7756 10.8315 13.72 10.3689ZM25.1511 9.68877C25.7462 9.66837 26.1423 9.818 26.3413 10.0288C26.5402 10.2397 26.6388 10.6239 26.5402 11.2785C26.5402 11.9332 26.2426 12.8088 25.7462 13.7882C25.2676 14.7021 24.7034 15.5686 24.0612 16.376C23.3228 15.4921 22.5277 14.6571 21.6807 13.8766C20.987 13.2135 20.2916 12.6184 19.5979 12.0522C20.5247 11.3912 21.5179 10.8287 22.5615 10.374C23.3747 9.99197 24.2503 9.75984 25.146 9.68877H25.1511ZM20.5892 15.1127C19.7983 14.3959 18.9708 13.7206 18.1101 13.0894L18.105 13.0809C17.3127 13.6947 16.5085 14.3493 15.7059 15.1042C14.8388 15.9244 14.0174 16.7918 13.2456 17.7023C14.0141 18.6416 14.8337 19.5379 15.7008 20.387H15.711C16.5136 21.0825 17.3178 21.7762 18.1101 22.3713C18.9042 21.7762 19.7968 21.0825 20.5892 20.387C21.4378 19.5456 22.2329 18.6518 22.9696 17.7108C22.2288 16.7979 21.4339 15.9303 20.5892 15.1127ZM16.6479 15.917C16.3962 15.917 16.1922 16.121 16.1922 16.3726V17.5033H20.0893V16.3437C20.0818 16.2226 20.0266 16.1095 19.9357 16.0291C19.8448 15.9488 19.7258 15.9078 19.6047 15.9153H16.6479V15.917ZM16.2416 17.9997V17.8994L20.0893 17.896V18.9876C20.1115 19.2331 19.9359 19.4522 19.6915 19.4841H16.6972H16.6564C16.5359 19.4741 16.4242 19.4165 16.3463 19.3239C16.2685 19.2313 16.2307 19.1115 16.2416 18.991V17.9997ZM12.4884 19.4353L12.4887 19.4356C13.1246 20.1368 13.8072 20.8895 14.5548 21.5686C14.5821 21.6044 14.6122 21.6379 14.6449 21.6689L14.6449 21.669C15.325 22.2641 16.0051 22.8592 16.6971 23.3539C15.7641 24.0358 14.7518 24.6022 13.6825 25.0406C12.681 25.5354 11.7884 25.7344 11.1321 25.7344C10.4758 25.7344 10.1306 25.6357 9.92317 25.4368C9.71573 25.2379 9.60521 24.8417 9.67492 24.148C9.74463 23.5529 10.032 22.6602 10.5251 21.6689C11.0048 20.7664 11.5564 19.9038 12.1744 19.0896C12.2778 19.203 12.3825 19.3184 12.4884 19.4353ZM25.7633 21.6689C25.2842 20.7576 24.7194 19.8939 24.0766 19.0896H24.0749C23.3351 19.9648 22.5412 20.7928 21.6979 21.5686C21.667 21.6046 21.6335 21.6381 21.5975 21.6689C21.3763 21.8587 21.1651 22.0483 20.9575 22.2347C20.5142 22.6327 20.0875 23.0158 19.615 23.3539C20.6063 24.148 21.6979 24.6428 22.5888 25.0406C23.3848 25.4647 24.2669 25.702 25.1682 25.7344C25.7633 25.7344 26.1611 25.6357 26.3584 25.4368C26.5556 25.2379 26.6559 24.8417 26.5556 24.148C26.5556 23.5529 26.258 22.6602 25.7633 21.6689Z" fill="#9CD33B"/>
</g>
<defs>
<linearGradient id="paint0_linear_1_554" x1="0" y1="0" x2="0" y2="36" gradientUnits="userSpaceOnUse">
<stop stop-color="#DBE96D"/>
<stop offset="1" stop-color="#9CD33B"/>
</linearGradient>
</defs>
</svg>
