<svg width="36" height="36" viewBox="0 0 36 36" fill="none" xmlns="http://www.w3.org/2000/svg">
<g id="icon-color-infra copy">
<rect id="Rectangle" opacity="0.2" width="36" height="36" rx="4" fill="url(#paint0_linear_1_448)"/>
<g id="icon-categoria-infraestrutura">
<path id="infraestrutura" fill-rule="evenodd" clip-rule="evenodd" d="M27.0391 16.7404L28.7733 17.0631C28.927 17.0631 28.9998 17.1891 28.9998 17.3431V19.727C28.9998 19.881 28.927 20.0066 28.7733 20.0066L27.0657 20.3297C26.8392 21.4108 26.4115 22.4178 25.8253 23.3127L26.8448 24.7901C26.9533 24.8986 26.9533 25.0757 26.8448 25.1845L25.1589 26.8684C25.05 26.9769 24.8719 26.9727 24.7634 26.8642L23.2857 25.8362C22.3907 26.4225 21.3834 26.8334 20.3023 27.0598L19.9792 28.7871C19.9792 28.9411 19.8532 29.0002 19.6996 29.0002H17.3154C17.1614 29.0002 17.0357 28.9411 17.0357 28.7871L16.7127 27.0934C15.6319 26.867 14.6246 26.4393 13.7296 25.8527L12.2523 26.8726C12.1434 26.9814 11.9663 26.9814 11.8575 26.8726L10.1729 25.1866C10.0644 25.0778 10.0672 24.8996 10.1761 24.7911L11.2012 23.3134C10.615 22.4185 10.1985 21.4112 9.97201 20.33L8.23426 20.007C8.08026 20.007 7.99976 19.881 7.99976 19.7273V17.3431C7.99976 17.1895 8.08026 17.0635 8.23426 17.0635L9.94926 16.7404C10.1757 15.6593 10.6034 14.6523 11.1897 13.7574L10.1701 12.28C10.0613 12.1712 10.0613 11.9934 10.1701 11.8845L11.8557 10.2C11.9646 10.0911 12.1427 10.0932 12.2516 10.2021L13.7289 11.2255C14.6239 10.6389 15.6315 10.2192 16.7127 9.99279L17.0357 8.24804C17.0357 8.09404 17.1614 8.00024 17.3154 8.00024H19.6996C19.8532 8.00024 19.9792 8.09404 19.9792 8.24804L20.3019 9.97669C21.3831 10.2031 22.3904 10.6312 23.2853 11.2174L24.7623 10.1979C24.8712 10.089 25.0486 10.089 25.1571 10.1979L26.8413 11.8835C26.9502 11.9923 26.947 12.1705 26.8382 12.2793L25.812 13.757C26.3982 14.6516 26.8126 15.6593 27.0391 16.7404ZM11.5129 18.5348C11.5129 22.3915 14.6507 25.5292 18.5073 25.5292C22.364 25.5292 25.5014 22.3915 25.5014 18.5348C25.5014 14.6785 22.364 11.5408 18.5073 11.5408C14.6507 11.5408 11.5129 14.6785 11.5129 18.5348ZM18.5075 15.364C16.7589 15.364 15.3362 16.7868 15.3362 18.535C15.3362 20.2836 16.7589 21.7064 18.5075 21.7064C20.2561 21.7064 21.6785 20.2836 21.6785 18.535C21.6785 16.7868 20.2561 15.364 18.5075 15.364ZM17.0862 18.535C17.0862 19.3187 17.7239 19.9564 18.5075 19.9564C19.2912 19.9564 19.9285 19.3187 19.9285 18.535C19.9285 17.7517 19.2912 17.114 18.5075 17.114C17.7239 17.114 17.0862 17.7517 17.0862 18.535Z" fill="#F16165"/>
</g>
</g>
<defs>
<linearGradient id="paint0_linear_1_448" x1="0" y1="0" x2="0" y2="36" gradientUnits="userSpaceOnUse">
<stop stop-color="#FF7FAB"/>
<stop offset="1" stop-color="#F16165"/>
</linearGradient>
</defs>
</svg>
