<svg width="36" height="36" viewBox="0 0 36 36" fill="none" xmlns="http://www.w3.org/2000/svg">
<g id="icon-color-front copy">
<rect id="Rectangle" opacity="0.2" width="36" height="36" rx="4" fill="url(#paint0_linear_1_435)"/>
<g id="icon-categoria-frontend">
<path id="front-end" fill-rule="evenodd" clip-rule="evenodd" d="M17.1111 10.0698C17.6761 10.0698 18.1343 9.60642 18.1343 9.03491C18.1343 8.4634 17.6761 8 17.1111 8H8.2037C7.90579 8 7.57838 8.06867 7.39132 8.27407C7.18826 8.46327 7 8.67269 7 8.97403V17.9838C7 18.5553 7.45813 19.0187 8.02315 19.0187C8.58817 19.0187 9.0463 18.5553 9.0463 17.9838V10.0698H17.1111ZM26.9769 18.2226C26.4118 18.2226 25.9537 18.686 25.9537 19.2576V27.4151H18.1296C17.5646 27.4151 17.1065 27.8785 17.1065 28.45C17.1065 29.0215 17.5646 29.4849 18.1296 29.4849H27.037C27.335 29.4849 27.542 29.2945 27.729 29.0891C27.9321 28.8999 28 28.5687 28 28.2673V19.2576C28 18.686 27.5419 18.2226 26.9769 18.2226ZM17.4398 23.917C16.9412 23.917 16.537 23.5081 16.537 23.0038V20.5109L14.3983 21.7948C14.2561 21.8779 14.1607 21.9173 14.0075 21.9173C13.6956 21.9173 13.3912 21.7535 13.224 21.4606C12.9746 21.0237 13.1207 20.4653 13.5525 20.2132L15.7888 18.905L13.5411 17.5967C13.1094 17.3446 12.9464 16.7861 13.1957 16.3494C13.4451 15.9126 13.967 15.7629 14.3988 16.0152L16.537 17.2991V14.7246C16.537 14.2203 16.9412 13.8114 17.4398 13.8114C17.9384 13.8114 18.3426 14.2203 18.3426 14.7246V17.3478L20.6842 16.0152C21.1158 15.7631 21.7278 15.9125 21.9771 16.3494C22.2263 16.7861 22.0774 17.3446 21.6457 17.5967L19.4037 18.905L21.64 20.2132C22.0718 20.4653 22.2123 21.0237 21.963 21.4606C21.7958 21.7534 21.4773 21.9173 21.1653 21.9173C21.012 21.9173 20.8268 21.8779 20.6846 21.7948L18.3426 20.4622V23.0038C18.3426 23.5081 17.9384 23.917 17.4398 23.917Z" fill="#6BD1FF"/>
</g>
</g>
<defs>
<linearGradient id="paint0_linear_1_435" x1="0" y1="0" x2="0" y2="36" gradientUnits="userSpaceOnUse">
<stop stop-color="#A4E1FF"/>
<stop offset="1" stop-color="#6BD1FF"/>
</linearGradient>
</defs>
</svg>
