<svg width="36" height="36" viewBox="0 0 36 36" fill="none" xmlns="http://www.w3.org/2000/svg">
<g id="icon-color-inovacao-gestao">
<g id="icon-inovacaogestao copy">
<rect id="Rectangle" opacity="0.2" width="36" height="36" rx="4" fill="url(#paint0_linear_1_630)"/>
</g>
<path id="Shape" fill-rule="evenodd" clip-rule="evenodd" d="M13.2689 23.3144V27.1545C13.2629 27.3735 13.3456 27.5858 13.4988 27.7445C13.6519 27.9032 13.8629 27.9951 14.0849 28H20.9151C21.1371 27.9951 21.3481 27.9032 21.5012 27.7445C21.6544 27.5858 21.7371 27.3735 21.7311 27.1545V23.3144C24.3713 21.7587 26 18.8705 26 15.7406C26 10.9146 22.1957 7 17.5 7C12.8043 7 9 10.9146 9 15.7422C9 18.8705 10.6287 21.7587 13.2689 23.3144ZM18.3159 23.6814V24.5133C18.3159 24.9578 17.9506 25.3182 17.4999 25.3182C17.0492 25.3182 16.6838 24.9578 16.6838 24.5133V23.6814H18.3159ZM18.3159 20.0982V23.6814H20.099V25.3605H14.9027V23.6814H16.6838V19.3536C16.7013 19.5362 16.7803 19.7089 16.9099 19.8432C17.0631 20.0019 17.2744 20.0937 17.4966 20.0982H18.3159ZM18.3159 14.0613C19.0326 13.4881 19.9334 13.1466 20.9117 13.1466H21.7689V13.1399C21.9911 13.1443 22.2023 13.2361 22.3555 13.3949C22.5088 13.5536 22.5914 13.7662 22.5849 13.9853V15.7473C22.5849 18.1502 20.6905 20.0982 18.3538 20.0982H18.3159V14.0613ZM16.6838 17.3235V13.101C16.6838 12.6565 17.0492 12.2961 17.4999 12.2961C17.9506 12.2961 18.3159 12.6565 18.3159 13.101V14.0613C17.3623 14.8242 16.7345 15.9976 16.6838 17.3235ZM16.6838 17.3235C16.6816 17.3812 16.6805 17.4392 16.6805 17.4975V19.2527C16.6795 19.2865 16.6806 19.3202 16.6838 19.3536V17.3235ZM14.9027 25.3605H14.0848C13.6536 25.3099 13.3289 24.9493 13.3289 24.521C13.3289 24.0926 13.6536 23.732 14.0848 23.6814H14.9027V22.8121C14.9037 22.4987 14.7289 22.2104 14.4484 22.063C12.1116 20.8794 10.6424 18.4224 10.6321 15.7422C10.6321 11.8412 13.7043 8.67912 17.4983 8.67743C21.2923 8.67574 24.3679 11.8361 24.3679 15.7372C24.3679 18.4173 22.8884 20.8659 20.5516 22.0563C20.2712 22.2043 20.097 22.4934 20.099 22.8071V23.6814H20.9544C21.3852 23.741 21.7025 24.1093 21.6924 24.5383C21.6823 24.9672 21.3481 25.3207 20.915 25.3605H20.099V26.3107L14.9027 26.3158V25.3605ZM18.3556 18.4139C19.7905 18.4139 20.9529 17.2167 20.9529 15.7422V14.8257H20.9152C19.4802 14.8257 18.3162 16.0212 18.3162 17.4974V18.4139H18.3556Z" fill="#FF8C2A"/>
</g>
<defs>
<linearGradient id="paint0_linear_1_630" x1="0" y1="0" x2="0" y2="36" gradientUnits="userSpaceOnUse">
<stop stop-color="#FFBC54"/>
<stop offset="1" stop-color="#FF8C2A"/>
</linearGradient>
</defs>
</svg>
