<svg width="36" height="36" viewBox="0 0 36 36" fill="none" xmlns="http://www.w3.org/2000/svg">
<rect opacity="0.2" width="36" height="36" rx="4" fill="#7B71FF"/>
<path d="M23.69 8H12.31C9.93344 8 8 9.93345 8 12.31V23.69C8 26.0666 9.93344 28 12.31 28H23.69C26.0665 28 28 26.0666 28 23.69V12.31C28 9.93345 26.0665 8 23.69 8ZM26.1904 23.69C26.1904 25.0689 25.0689 26.1904 23.69 26.1904H12.31C10.9311 26.1904 9.80959 25.0689 9.80959 23.69V18.8045H10.4482C10.7719 19.6417 11.585 20.2373 12.5352 20.2373C12.8581 20.2373 13.165 20.1681 13.442 20.0442L14.5592 21.1614C14.5149 21.2611 14.4771 21.3656 14.4474 21.4742C14.2885 22.0505 14.3633 22.6537 14.6585 23.1732C14.9537 23.6928 15.4334 24.0668 16.0092 24.2256C16.2071 24.2803 16.4078 24.3072 16.6076 24.3072C16.9896 24.3072 17.3672 24.2083 17.7087 24.0145C18.2282 23.7193 18.6022 23.2396 18.761 22.6637C19.0892 21.4746 18.3883 20.2401 17.1992 19.9123C16.6808 19.7696 16.1544 19.8219 15.6976 20.0249L14.5797 18.907C14.7031 18.6295 14.7723 18.3227 14.7723 18.0002C14.7723 17.6773 14.7031 17.3705 14.5793 17.093L15.696 15.9763C15.7965 16.0205 15.9011 16.0579 16.0088 16.0877C16.2071 16.1424 16.4066 16.1685 16.6028 16.1685C17.5132 16.1685 18.3553 15.6075 18.6907 14.7353H20.2923C20.3322 14.8378 20.3796 14.938 20.4351 15.0357C20.7303 15.5552 21.21 15.9292 21.7859 16.0881C21.9837 16.1428 22.1844 16.1697 22.3842 16.1697C22.7663 16.1697 23.1439 16.0708 23.4853 15.8769C24.0048 15.5818 24.3788 15.102 24.5376 14.5262C24.8658 13.3371 24.1649 12.1025 22.9758 11.7748C21.8582 11.4668 20.7013 12.0668 20.2936 13.1272H18.6907C18.4438 12.4886 17.9081 11.9702 17.1988 11.7748C16.0097 11.4471 14.7751 12.1476 14.4474 13.3367C14.3082 13.8414 14.3485 14.3673 14.5592 14.839L13.442 15.9562C13.1646 15.8327 12.8581 15.7635 12.5352 15.7635C11.585 15.7635 10.7719 16.3591 10.4482 17.1963H9.80959V12.3104C9.80959 10.9315 10.9311 9.80999 12.31 9.80999H23.69C25.0689 9.80999 26.1904 10.9315 26.1904 12.3104V23.69ZM13.3648 18.0002C13.3648 18.4578 12.9925 18.8298 12.5352 18.8298C12.078 18.8298 11.7056 18.4574 11.7056 18.0002C11.7056 17.5426 12.078 17.1706 12.5352 17.1706C12.9925 17.1706 13.3648 17.5426 13.3648 18.0002ZM16.1946 21.3475C16.3213 21.2756 16.4612 21.239 16.6028 21.239C16.6768 21.239 16.7512 21.249 16.8248 21.2691C17.2659 21.3906 17.5257 21.8486 17.4042 22.2897C17.3455 22.5033 17.2068 22.6814 17.0142 22.7908C16.8216 22.9002 16.5976 22.9279 16.384 22.8692C16.1705 22.8101 15.9924 22.6718 15.883 22.4791C15.7736 22.2865 15.7459 22.0625 15.8046 21.849C15.8633 21.6351 16.002 21.4569 16.1946 21.3475ZM15.8042 13.7107C15.9055 13.3431 16.2401 13.1014 16.6044 13.1014C16.6772 13.1014 16.7512 13.1111 16.8248 13.1312C17.2659 13.2526 17.5257 13.7107 17.4042 14.1518C17.2824 14.5929 16.8248 14.8527 16.3836 14.7313C16.1701 14.6722 15.992 14.5338 15.8826 14.3412C15.7732 14.1478 15.7455 13.9242 15.8042 13.7107ZM21.5812 13.7107C21.6825 13.3431 22.0171 13.1014 22.3814 13.1014C22.4542 13.1014 22.5282 13.1111 22.6018 13.1312C23.0429 13.2526 23.3027 13.7107 23.1813 14.1518C23.1226 14.3653 22.9838 14.5435 22.7912 14.6529C22.5986 14.7622 22.3746 14.79 22.161 14.7313C21.9475 14.6722 21.7694 14.5338 21.66 14.3412C21.5502 14.1478 21.5225 13.9242 21.5812 13.7107Z" fill="#7B71FF"/>
</svg>
