<svg width="36" height="36" viewBox="0 0 36 36" fill="none" xmlns="http://www.w3.org/2000/svg">
<g id="icon-color-mobile copy">
<rect id="Rectangle" opacity="0.2" width="36" height="36" rx="4" fill="url(#paint0_linear_1_646)"/>
<g id="icon-categoria-mobile">
<path id="mobile" fill-rule="evenodd" clip-rule="evenodd" d="M24.5014 10.3159C24.5014 9.03685 23.4646 8 22.1855 8H13.3159C12.037 8 11 9.03685 11 10.3159V26.3797C11 27.6588 12.037 28.6957 13.3159 28.6957H22.1855C23.4646 28.6957 24.5014 27.6588 24.5014 26.3797V10.3159ZM22.2078 9.87246H13.2938C13.0493 9.87246 12.8725 10.0566 12.8725 10.2883V21.3588H22.629V10.2883C22.629 10.0566 22.4523 9.87246 22.2078 9.87246ZM13.2938 26.8261H22.2078C22.4523 26.8261 22.629 26.6329 22.629 26.3418V22.8361H12.8725V26.3418C12.8725 26.6329 13.0493 26.8261 13.2938 26.8261ZM17.7852 23.9091H17.8966C18.4809 23.9091 18.9545 24.4076 18.9545 25.0227C18.9545 25.6378 18.4809 26.1364 17.8966 26.1364H17.7852C17.2009 26.1364 16.7273 25.6378 16.7273 25.0227C16.7273 24.4076 17.2009 23.9091 17.7852 23.9091Z" fill="#FFBA05"/>
</g>
</g>
<defs>
<linearGradient id="paint0_linear_1_646" x1="0.359163" y1="0.718328" x2="0.359163" y2="36" gradientUnits="userSpaceOnUse">
<stop offset="0.00456609" stop-color="#FFD70C"/>
<stop offset="0.446474" stop-color="#FFD70C"/>
<stop offset="1" stop-color="#FFBA05"/>
</linearGradient>
</defs>
</svg>
