<svg width="36" height="36" viewBox="0 0 36 36" fill="none" xmlns="http://www.w3.org/2000/svg">
<g id="icon-color-programacao copy">
<rect id="Rectangle" width="36" height="36" rx="4" fill="url(#paint0_linear_1_424)" fill-opacity="0.2"/>
<path id="programacao" fill-rule="evenodd" clip-rule="evenodd" d="M11.3114 25.9661H24.9974C25.5512 25.9661 26 26.4214 26 26.9831C26 27.5447 25.5512 28 24.9974 28H11.3114C10.0214 28 9 26.9442 9 25.6357V10.4124C9 9.10395 10.0214 8 11.3114 8H24.9974C25.5512 8 26 8.45525 26 9.01695C26 9.57864 25.5512 10.0339 24.9974 10.0339H11.3114C11.1302 10.0339 11.0052 10.2287 11.0052 10.4124V25.6357C11.0052 25.8194 11.1302 25.9661 11.3114 25.9661ZM18.3363 17.8409L14.8091 14.2635C14.396 13.8443 13.7257 13.8444 13.3125 14.2636C12.8992 14.6828 12.8992 15.3625 13.3126 15.7817L16.1876 18.6975L13.3126 21.6134C12.8992 22.0326 12.8992 22.7123 13.3125 23.1315C13.5192 23.3411 13.7899 23.4459 14.0609 23.4459C14.3317 23.4459 14.6025 23.3411 14.8091 23.1315L18.3363 19.5542C18.5675 19.3198 18.6692 19.0038 18.6418 18.6975C18.6692 18.3913 18.5675 18.0753 18.3363 17.8409ZM24.9416 21.5593H19.8171C19.2326 21.5593 18.7588 22.0399 18.7588 22.6328C18.7588 23.2257 19.2326 23.7062 19.8171 23.7062H24.9416C25.5261 23.7062 25.9999 23.2257 25.9999 22.6328C25.9999 22.0399 25.5261 21.5593 24.9416 21.5593Z" fill="#00C86F"/>
</g>
<defs>
<linearGradient id="paint0_linear_1_424" x1="0" y1="0" x2="0" y2="36" gradientUnits="userSpaceOnUse">
<stop stop-color="#00E6AB"/>
<stop offset="1" stop-color="#00C86F"/>
</linearGradient>
</defs>
</svg>
