<svg width="36" height="36" viewBox="0 0 36 36" fill="none" xmlns="http://www.w3.org/2000/svg">
<g id="icon-color-ux-design">
<g id="icon-color-designux copy">
<rect id="Rectangle" width="36" height="36" rx="4" fill="url(#paint0_linear_1_458)" fill-opacity="0.2"/>
</g>
<path id="Shape" fill-rule="evenodd" clip-rule="evenodd" d="M28.9061 17.9661C28.1106 16.5328 27.144 15.2078 26.0289 14.0222C23.5644 11.3811 20.7891 10 18 10C15.2108 10 12.4355 11.3811 9.9711 14.0133C8.856 15.2022 7.88944 16.5301 7.09389 17.9661C7.00969 18.1297 6.98169 18.3179 7.01445 18.5C6.97982 18.6856 7.00786 18.8777 7.09389 19.0446C7.89079 20.4764 8.85726 21.8006 9.9711 22.9867C12.4355 25.6189 15.2126 27 18 27C20.7874 27 23.5644 25.6118 26.0289 22.9867C27.1427 21.801 28.1086 20.4767 28.9043 19.0446C28.9909 18.8779 29.0196 18.6858 28.9855 18.5C29.0205 18.3143 28.9918 18.1218 28.9043 17.9554L28.9061 17.9661ZM18.0001 25.3485C12.8864 25.3485 9.35121 19.7317 8.63623 18.4983C9.34949 17.265 12.8726 11.6499 18.0001 11.6499C23.1276 11.6499 26.649 17.2667 27.3622 18.5001C26.6472 19.7352 23.1138 25.3503 18.0001 25.3503V25.3485ZM19.9446 17.6066C19.5646 17.6066 19.2538 18.0355 19.2538 18.4306L19.2659 18.4324C19.2659 18.8275 19.5716 19.2564 19.9567 19.2564H21.6595C21.2831 21.0365 19.7677 22.3159 18 22.346C16.0475 22.3441 14.4252 20.7944 14.2755 18.7883C14.1259 16.7821 15.4992 14.9951 17.4284 14.6856C19.3577 14.3761 21.1931 15.6485 21.6422 17.6066H19.9446Z" fill="#DC6EBE"/>
</g>
<defs>
<linearGradient id="paint0_linear_1_458" x1="0" y1="0" x2="0" y2="36" gradientUnits="userSpaceOnUse">
<stop stop-color="#DD5DFC"/>
<stop offset="1" stop-color="#DC6EBE"/>
</linearGradient>
</defs>
</svg>
